<svg width="44" height="40" viewBox="0 0 44 40" fill="none" xmlns="http://www.w3.org/2000/svg">
<ellipse cx="21.9315" cy="20" rx="21.1233" ry="20" fill="white"/>
<path fill-rule="evenodd" clip-rule="evenodd" d="M28.2685 10H15.5945C13.2613 10 11.3699 11.7909 11.3699 14V26C11.3699 28.2091 13.2613 30 15.5945 30H28.2685C30.6017 30 32.4932 28.2091 32.4932 26V14C32.4932 11.7909 30.6017 10 28.2685 10ZM13.0597 14C13.0597 12.6745 14.1946 11.6 15.5945 11.6H28.2685C29.6684 11.6 30.8033 12.6745 30.8033 14V26C30.8033 27.3255 29.6684 28.4 28.2685 28.4H15.5945C14.1946 28.4 13.0597 27.3255 13.0597 26V14ZM21.9315 26C18.4317 26 15.5945 23.3137 15.5945 20C15.5945 16.6863 18.4317 14 21.9315 14C25.4313 14 28.2685 16.6863 28.2685 20C28.2685 23.3137 25.4313 26 21.9315 26ZM21.9315 24.4C24.4981 24.4 26.5786 22.4301 26.5786 20C26.5786 17.5699 24.4981 15.6 21.9315 15.6C19.365 15.6 17.2844 17.5699 17.2844 20C17.2844 22.4301 19.365 24.4 21.9315 24.4ZM28.2685 15.2C28.9685 15.2 29.5359 14.6627 29.5359 14C29.5359 13.3373 28.9685 12.8 28.2685 12.8C27.5685 12.8 27.0011 13.3373 27.0011 14C27.0011 14.6627 27.5685 15.2 28.2685 15.2Z" fill="white"/>
<mask id="mask0_3_2711" style="mask-type:luminance" maskUnits="userSpaceOnUse" x="11" y="10" width="22" height="20">
<path fill-rule="evenodd" clip-rule="evenodd" d="M28.2685 10H15.5945C13.2613 10 11.3699 11.7909 11.3699 14V26C11.3699 28.2091 13.2613 30 15.5945 30H28.2685C30.6017 30 32.4932 28.2091 32.4932 26V14C32.4932 11.7909 30.6017 10 28.2685 10ZM13.0597 14C13.0597 12.6745 14.1946 11.6 15.5945 11.6H28.2685C29.6684 11.6 30.8033 12.6745 30.8033 14V26C30.8033 27.3255 29.6684 28.4 28.2685 28.4H15.5945C14.1946 28.4 13.0597 27.3255 13.0597 26V14ZM21.9315 26C18.4317 26 15.5945 23.3137 15.5945 20C15.5945 16.6863 18.4317 14 21.9315 14C25.4313 14 28.2685 16.6863 28.2685 20C28.2685 23.3137 25.4313 26 21.9315 26ZM21.9315 24.4C24.4981 24.4 26.5786 22.4301 26.5786 20C26.5786 17.5699 24.4981 15.6 21.9315 15.6C19.365 15.6 17.2844 17.5699 17.2844 20C17.2844 22.4301 19.365 24.4 21.9315 24.4ZM28.2685 15.2C28.9685 15.2 29.5359 14.6627 29.5359 14C29.5359 13.3373 28.9685 12.8 28.2685 12.8C27.5685 12.8 27.0011 13.3373 27.0011 14C27.0011 14.6627 27.5685 15.2 28.2685 15.2Z" fill="white"/>
</mask>
<g mask="url(#mask0_3_2711)">
<path fill-rule="evenodd" clip-rule="evenodd" d="M0.808228 0H43.0548V40H0.808228V0Z" fill="#002868"/>
</g>
</svg>
