<svg width="44" height="40" viewBox="0 0 44 40" fill="none" xmlns="http://www.w3.org/2000/svg">
<ellipse cx="22" cy="20" rx="21.1233" ry="20" fill="white"/>
<path fill-rule="evenodd" clip-rule="evenodd" d="M14.7785 10C13.5157 10 12.4945 10.9714 12.4945 12.1662C12.4945 13.3624 13.5157 14.3333 14.7785 14.3333C16.0383 14.3333 17.062 13.3624 17.062 12.1662C17.062 10.9714 16.0383 10 14.7785 10ZM12.8071 27.9998H16.7488V15.9768H12.8071V27.9998ZM23.0538 17.6197C23.5796 16.6745 24.8655 15.6775 26.782 15.6775C30.7686 15.6775 31.5055 18.167 31.5055 21.4053V28H27.5701V22.1532C27.5701 20.7587 27.5411 18.9652 25.5217 18.9652C23.4719 18.9652 23.159 20.4839 23.159 22.0529V28H19.2202V15.977H23.0001V17.6197H23.0538Z" fill="#1A1919"/>
<mask id="mask0_3_2698" style="mask-type:luminance" maskUnits="userSpaceOnUse" x="12" y="10" width="20" height="18">
<path fill-rule="evenodd" clip-rule="evenodd" d="M14.7785 10C13.5157 10 12.4945 10.9714 12.4945 12.1662C12.4945 13.3624 13.5157 14.3333 14.7785 14.3333C16.0383 14.3333 17.062 13.3624 17.062 12.1662C17.062 10.9714 16.0383 10 14.7785 10ZM12.8071 27.9998H16.7488V15.9768H12.8071V27.9998ZM23.0538 17.6197C23.5796 16.6745 24.8655 15.6775 26.782 15.6775C30.7686 15.6775 31.5055 18.167 31.5055 21.4053V28H27.5701V22.1532C27.5701 20.7587 27.5411 18.9652 25.5217 18.9652C23.4719 18.9652 23.159 20.4839 23.159 22.0529V28H19.2202V15.977H23.0001V17.6197H23.0538Z" fill="white"/>
</mask>
<g mask="url(#mask0_3_2698)">
<path fill-rule="evenodd" clip-rule="evenodd" d="M0.876709 0H43.1233V40H0.876709V0Z" fill="#002868"/>
</g>
</svg>
