<svg width="44" height="40" viewBox="0 0 44 40" fill="none" xmlns="http://www.w3.org/2000/svg">
<ellipse cx="22.0685" cy="20" rx="21.1233" ry="20" fill="white"/>
<path fill-rule="evenodd" clip-rule="evenodd" d="M32.6301 13.973C31.854 14.3077 31.0183 14.534 30.1418 14.6351C31.0369 14.1151 31.7238 13.2905 32.0474 12.3082C31.2093 12.7897 30.2831 13.14 29.2937 13.3278C28.5052 12.5104 27.3781 12 26.1308 12C23.7392 12 21.7988 13.884 21.7988 16.2073C21.7988 16.5371 21.836 16.8573 21.9104 17.1655C18.3086 16.9898 15.116 15.3165 12.9773 12.768C12.6041 13.3916 12.3908 14.1151 12.3908 14.8855C12.3908 16.3445 13.1558 17.6326 14.3188 18.3874C13.6096 18.3669 12.9401 18.1755 12.3549 17.8625V17.9143C12.3549 19.9535 13.8489 21.6545 15.8327 22.0397C15.4694 22.1384 15.0863 22.1878 14.6908 22.1878C14.4118 22.1878 14.139 22.1625 13.8749 22.1132C14.4267 23.784 16.0261 25.0011 17.923 25.0336C16.4402 26.1628 14.5705 26.8357 12.5409 26.8357C12.1912 26.8357 11.8453 26.8164 11.5068 26.7779C13.4249 27.9697 15.7037 28.6667 18.1499 28.6667C26.1222 28.6667 30.4802 22.2564 30.4802 16.696C30.4802 16.5131 30.4765 16.3301 30.4691 16.1507C31.3159 15.5572 32.0511 14.8169 32.6301 13.973" fill="white"/>
<mask id="mask0_3_2691" style="mask-type:luminance" maskUnits="userSpaceOnUse" x="11" y="12" width="22" height="17">
<path fill-rule="evenodd" clip-rule="evenodd" d="M32.6301 13.973C31.854 14.3077 31.0183 14.534 30.1418 14.6351C31.0369 14.1151 31.7238 13.2905 32.0474 12.3082C31.2093 12.7897 30.2831 13.14 29.2937 13.3278C28.5052 12.5104 27.3781 12 26.1308 12C23.7392 12 21.7988 13.884 21.7988 16.2073C21.7988 16.5371 21.836 16.8573 21.9104 17.1655C18.3086 16.9898 15.116 15.3165 12.9773 12.768C12.6041 13.3916 12.3908 14.1151 12.3908 14.8855C12.3908 16.3445 13.1558 17.6326 14.3188 18.3874C13.6096 18.3669 12.9401 18.1755 12.3549 17.8625V17.9143C12.3549 19.9535 13.8489 21.6545 15.8327 22.0397C15.4694 22.1384 15.0863 22.1878 14.6908 22.1878C14.4118 22.1878 14.139 22.1625 13.8749 22.1132C14.4267 23.784 16.0261 25.0011 17.923 25.0336C16.4402 26.1628 14.5705 26.8357 12.5409 26.8357C12.1912 26.8357 11.8453 26.8164 11.5068 26.7779C13.4249 27.9697 15.7037 28.6667 18.1499 28.6667C26.1222 28.6667 30.4802 22.2564 30.4802 16.696C30.4802 16.5131 30.4765 16.3301 30.4691 16.1507C31.3159 15.5572 32.0511 14.8169 32.6301 13.973" fill="white"/>
</mask>
<g mask="url(#mask0_3_2691)">
<path fill-rule="evenodd" clip-rule="evenodd" d="M0.94519 0H43.1918V40H0.94519V0Z" fill="#002868"/>
</g>
</svg>
