<svg width="25" height="25" viewBox="0 0 25 25" fill="none" xmlns="http://www.w3.org/2000/svg">
<path d="M15.8201 13.6349L9.82012 19.6349C9.62012 19.8349 9.42012 19.9349 9.12012 19.9349C8.82012 19.9349 8.62012 19.8349 8.42012 19.6349C8.02012 19.2349 8.02012 18.6349 8.42012 18.2349L13.7201 12.9349L8.42012 7.63494C8.02012 7.23494 8.02012 6.63494 8.42012 6.23494C8.82012 5.83494 9.42012 5.83494 9.82012 6.23494L15.8201 12.2349C16.2201 12.6349 16.2201 13.2349 15.8201 13.6349Z" fill="black"/>
<mask id="mask0_0_59" style="mask-type:luminance" maskUnits="userSpaceOnUse" x="8" y="5" width="9" height="15">
<path d="M15.8201 13.6349L9.82012 19.6349C9.62012 19.8349 9.42012 19.9349 9.12012 19.9349C8.82012 19.9349 8.62012 19.8349 8.42012 19.6349C8.02012 19.2349 8.02012 18.6349 8.42012 18.2349L13.7201 12.9349L8.42012 7.63494C8.02012 7.23494 8.02012 6.63494 8.42012 6.23494C8.82012 5.83494 9.42012 5.83494 9.82012 6.23494L15.8201 12.2349C16.2201 12.6349 16.2201 13.2349 15.8201 13.6349Z" fill="white"/>
</mask>
<g mask="url(#mask0_0_59)">
<rect x="0.120117" y="0.934937" width="24" height="24" fill="white"/>
</g>
</svg>

