<svg width="43" height="40" viewBox="0 0 43 40" fill="none" xmlns="http://www.w3.org/2000/svg">
<ellipse cx="21.863" cy="20" rx="21.1233" ry="20" fill="white"/>
<path fill-rule="evenodd" clip-rule="evenodd" d="M19.2459 23.635L19.2451 16.8439L26.0938 20.2511L19.2459 23.635ZM34.2836 15.6671C34.2836 15.6671 34.0356 14.0016 33.276 13.2682C32.312 12.3051 31.2315 12.3006 30.7364 12.2447C27.1893 12 21.8686 12 21.8686 12H21.8575C21.8575 12 16.5368 12 12.9897 12.2447C12.4938 12.3006 11.4142 12.3051 10.4494 13.2682C9.68971 14.0016 9.44257 15.6671 9.44257 15.6671C9.44257 15.6671 9.18909 17.6234 9.18909 19.5789V21.4128C9.18909 23.3691 9.44257 25.3246 9.44257 25.3246C9.44257 25.3246 9.68971 26.9901 10.4494 27.7235C11.4142 28.6865 12.6808 28.6563 13.2448 28.7568C15.2726 28.9426 21.8631 29 21.8631 29C21.8631 29 27.1893 28.9924 30.7364 28.7477C31.2315 28.6911 32.312 28.6865 33.276 27.7235C34.0356 26.9901 34.2836 25.3246 34.2836 25.3246C34.2836 25.3246 34.537 23.3691 34.537 21.4128V19.5789C34.537 17.6234 34.2836 15.6671 34.2836 15.6671V15.6671Z" fill="white"/>
<mask id="mask0_3_2734" style="mask-type:luminance" maskUnits="userSpaceOnUse" x="9" y="12" width="26" height="17">
<path fill-rule="evenodd" clip-rule="evenodd" d="M19.2459 23.635L19.2451 16.8439L26.0938 20.2511L19.2459 23.635ZM34.2836 15.6671C34.2836 15.6671 34.0356 14.0016 33.276 13.2682C32.312 12.3051 31.2315 12.3006 30.7364 12.2447C27.1893 12 21.8686 12 21.8686 12H21.8575C21.8575 12 16.5368 12 12.9897 12.2447C12.4938 12.3006 11.4142 12.3051 10.4494 13.2682C9.68971 14.0016 9.44257 15.6671 9.44257 15.6671C9.44257 15.6671 9.18909 17.6234 9.18909 19.5789V21.4128C9.18909 23.3691 9.44257 25.3246 9.44257 25.3246C9.44257 25.3246 9.68971 26.9901 10.4494 27.7235C11.4142 28.6865 12.6808 28.6563 13.2448 28.7568C15.2726 28.9426 21.8631 29 21.8631 29C21.8631 29 27.1893 28.9924 30.7364 28.7477C31.2315 28.6911 32.312 28.6865 33.276 27.7235C34.0356 26.9901 34.2836 25.3246 34.2836 25.3246C34.2836 25.3246 34.537 23.3691 34.537 21.4128V19.5789C34.537 17.6234 34.2836 15.6671 34.2836 15.6671V15.6671Z" fill="white"/>
</mask>
<g mask="url(#mask0_3_2734)">
<path fill-rule="evenodd" clip-rule="evenodd" d="M0.739746 0H42.9863V40H0.739746V0Z" fill="#002868"/>
</g>
</svg>
