<svg xmlns="http://www.w3.org/2000/svg" version="1.1" xmlns:xlink="http://www.w3.org/1999/xlink" xmlns:svgjs="http://svgjs.dev/svgjs" width="1440" height="560" preserveAspectRatio="none" viewBox="0 0 1440 560"><g mask="url(&quot;#SvgjsMask1017&quot;)" fill="none"><rect width="1440" height="560" x="0" y="0" fill="rgba(161, 163, 165, 1)"></rect><path d="M0,311.161C67.622,304.836,138.737,340.713,199.622,310.618C262.321,279.627,305.599,215.948,327.205,149.429C347.713,86.291,336.402,17.597,315.239,-45.324C296.485,-101.083,256.164,-144.341,214.448,-185.82C175.467,-224.58,130.325,-252.363,81.54,-277.699C21.634,-308.81,-35.524,-353.61,-102.963,-350.661C-176.91,-347.428,-259.59,-322.2,-301.17,-260.965C-342.548,-200.028,-305.839,-118.172,-310.736,-44.677C-315.159,21.703,-342.644,85.029,-328.558,150.048C-312.32,225.002,-294.017,316.584,-225.157,350.35C-155.344,384.584,-77.417,318.402,0,311.161" fill="#999b9d"></path><path d="M1440 1058.408C1530.728 1033.491 1612.724 999.4159999999999 1700.311 965.052 1812.5149999999999 921.029 1978.53 938.4300000000001 2027.033 828.0889999999999 2075.758 717.244 1921.965 612.986 1907.936 492.721 1893.275 367.04200000000003 2027.577 218.28500000000003 1944.74 122.63999999999999 1861.91 27.003000000000043 1698.999 120.01400000000001 1573.229 106.26299999999998 1475.831 95.61399999999998 1385.815 28.101 1290.578 51.115999999999985 1193.886 74.483 1133.812 164.14 1059.605 230.38600000000002 973.5 307.254 841.742 357.48400000000004 820.342 470.907 798.989 584.078 915.619 673.206 955.682 781.181 1000.0350000000001 900.719 957.453 1075.336 1068.108 1138.676 1180.446 1202.979 1315.182 1092.687 1440 1058.408" fill="#a9abad"></path></g><defs><mask id="SvgjsMask1017"><rect width="1440" height="560" fill="#ffffff"></rect></mask></defs></svg>